<svg width="50" height="49" viewBox="0 0 50 49" fill="none" xmlns="http://www.w3.org/2000/svg">
<path fill-rule="evenodd" clip-rule="evenodd" d="M25 0C11.1875 0 0 11.2411 0 25.1197C0 36.2352 7.15625 45.6237 17.0937 48.952C18.3437 49.1718 18.8125 48.4182 18.8125 47.7588C18.8125 47.1622 18.7812 45.1841 18.7812 43.0803C12.5 44.2421 10.875 41.5417 10.375 40.1287C10.0937 39.4065 8.875 37.1772 7.8125 36.5806C6.9375 36.1096 5.6875 34.9478 7.78125 34.9164C9.75 34.885 11.1562 36.7376 11.625 37.4911C13.875 41.2905 17.4687 40.2229 18.9062 39.5635C19.125 37.9307 19.7812 36.8318 20.5 36.2038C14.9375 35.5758 9.125 33.4092 9.125 23.8009C9.125 21.0691 10.0937 18.8084 11.6875 17.05C11.4375 16.422 10.5625 13.8472 11.9375 10.3933C11.9375 10.3933 14.0312 9.73388 18.8125 12.968C20.8125 12.4029 22.9375 12.1203 25.0625 12.1203C27.1875 12.1203 29.3125 12.4029 31.3125 12.968C36.0937 9.70248 38.1875 10.3933 38.1875 10.3933C39.5625 13.8472 38.6875 16.422 38.4375 17.05C40.0313 18.8084 41 21.0377 41 23.8009C41 33.4406 35.1562 35.5758 29.5937 36.2038C30.5 36.9888 31.2812 38.4959 31.2812 40.8509C31.2812 44.2107 31.25 46.911 31.25 47.7588C31.25 48.4182 31.7187 49.2032 32.9687 48.952C37.9316 47.2684 42.2441 44.0635 45.2993 39.7883C48.3545 35.5131 49.9985 30.3829 50 25.1197C50 11.2411 38.8125 0 25 0Z" fill="white"/>
</svg>