<svg width="52" height="52" viewBox="0 0 52 52" fill="none" xmlns="http://www.w3.org/2000/svg">
<path d="M30.1172 21.8828C27.933 19.6995 24.9711 18.473 21.8828 18.473C18.7945 18.473 15.8326 19.6995 13.6484 21.8828L5.41135 30.1172C3.2271 32.3015 2 35.2639 2 38.3529C2 41.4419 3.2271 44.4044 5.41135 46.5887C7.5956 48.7729 10.5581 50 13.6471 50C16.7361 50 19.6986 48.7729 21.8828 46.5887L26 42.4715" stroke="white" stroke-width="4" stroke-linecap="round" stroke-linejoin="round"/>
<path d="M21.8829 30.1172C24.0671 32.3005 27.029 33.527 30.1173 33.527C33.2056 33.527 36.1675 32.3005 38.3517 30.1172L46.5888 21.8828C48.773 19.6986 50.0001 16.7361 50.0001 13.6471C50.0001 10.5581 48.773 7.5956 46.5888 5.41135C44.4045 3.2271 41.442 2 38.3531 2C35.2641 2 32.3016 3.2271 30.1173 5.41135L26.0001 9.52855" stroke="white" stroke-width="4" stroke-linecap="round" stroke-linejoin="round"/>
</svg>