<svg width="382" height="382" viewBox="0 0 382 382" fill="none" xmlns="http://www.w3.org/2000/svg">
<path d="M337.611 312.828C357.202 289.257 370.828 261.315 377.335 231.364C383.843 201.414 383.041 170.336 374.998 140.761C366.955 111.186 351.907 83.9831 331.127 61.4536C310.347 38.9241 284.446 21.7309 255.616 11.3284C226.786 0.925861 195.875 -2.37993 165.497 1.69066C135.119 5.76126 106.169 17.0885 81.0943 34.7141C56.02 52.3398 35.5597 75.7453 21.4442 102.951C7.32868 130.156 -0.0267725 160.361 7.32222e-05 191.01C0.0103749 235.566 15.7115 278.694 44.3483 312.828L44.0755 313.06C45.0304 314.206 46.1217 315.188 47.1039 316.32C48.3316 317.726 49.6548 319.049 50.9234 320.413C54.743 324.56 58.6718 328.543 62.7915 332.281C64.0465 333.427 65.3424 334.491 66.6111 335.582C70.9763 339.347 75.4643 342.921 80.1161 346.25C80.7163 346.659 81.2619 347.191 81.8622 347.614V347.45C113.812 369.933 151.926 382 190.993 382C230.061 382 268.175 369.933 300.125 347.45V347.614C300.725 347.191 301.257 346.659 301.871 346.25C306.509 342.908 311.011 339.347 315.376 335.582C316.644 334.491 317.94 333.413 319.195 332.281C323.315 328.53 327.244 324.56 331.063 320.413C332.332 319.049 333.642 317.726 334.883 316.32C335.852 315.188 336.956 314.206 337.911 313.047L337.611 312.828ZM190.98 81.8792C203.121 81.8792 214.989 85.4795 225.084 92.2247C235.179 98.9699 243.047 108.557 247.693 119.774C252.34 130.991 253.555 143.334 251.187 155.241C248.818 167.149 242.972 178.087 234.386 186.672C225.801 195.257 214.863 201.104 202.956 203.472C191.048 205.841 178.705 204.625 167.488 199.979C156.271 195.333 146.684 187.465 139.939 177.37C133.194 167.275 129.593 155.407 129.593 143.266C129.593 126.985 136.061 111.371 147.573 99.8589C159.085 88.3467 174.699 81.8792 190.98 81.8792V81.8792ZM81.944 312.828C82.1806 294.917 89.4597 277.818 102.206 265.233C114.953 252.647 132.142 245.585 150.056 245.576H231.904C249.817 245.585 267.007 252.647 279.753 265.233C292.5 277.818 299.779 294.917 300.016 312.828C270.098 339.788 231.253 354.708 190.98 354.708C150.707 354.708 111.862 339.788 81.944 312.828V312.828Z" fill="black" fill-opacity="0.25"/>
</svg>
