<svg width="141" height="141" viewBox="0 0 141 141" fill="none" xmlns="http://www.w3.org/2000/svg">
<path d="M70.8951 4.00118C57.7262 3.9229 44.8304 7.75641 33.8427 15.0158C22.855 22.2751 14.2701 32.6334 9.1762 44.7775C4.08232 56.9217 2.70888 70.3048 5.22998 83.2305C7.75107 96.1561 14.0532 108.042 23.3374 117.382C32.6217 126.722 44.4699 133.095 57.3803 135.693C70.2907 138.291 83.6818 136.997 95.8561 131.976C108.03 126.954 118.44 118.431 125.764 107.487C133.089 96.5428 136.999 83.6702 137 70.501C137.027 61.7936 135.339 53.1661 132.032 45.1114C128.724 37.0566 123.862 29.7323 117.723 23.5569C111.585 17.3815 104.29 12.476 96.2547 9.12058C88.2198 5.76516 79.6025 4.02557 70.8951 4.00118V4.00118ZM70.8951 90.2649C66.9748 90.2926 63.1346 89.155 59.8618 86.9966C56.589 84.8382 54.0311 81.7562 52.5127 78.1418C50.9944 74.5273 50.5839 70.5432 51.3335 66.6951C52.083 62.847 53.9588 59.3083 56.7228 56.5279C59.4867 53.7476 63.0144 51.851 66.858 51.0787C70.7016 50.3065 74.688 50.6934 78.3114 52.1905C81.9348 53.6875 85.0318 56.2271 87.2094 59.4871C89.3871 62.7471 90.5473 66.5805 90.5428 70.501C90.552 73.0903 90.0511 75.6561 89.0686 78.0519C88.0862 80.4476 86.6415 82.6264 84.8171 84.4638C82.9926 86.3012 80.8241 87.7613 78.4354 88.7606C76.0466 89.76 73.4845 90.279 70.8951 90.2882V90.2649Z" fill="#E3B381"/>
<path d="M70.8952 4.00116C57.9795 4.08678 45.3676 7.92783 34.5969 15.0561C23.8261 22.1844 15.3616 32.2921 10.2351 44.1471C5.10862 56.0021 3.54156 69.0924 5.72493 81.8225C7.9083 94.5526 13.7478 106.373 22.5316 115.842C22.5316 115.353 22.5316 114.888 22.6712 114.4V109.076C22.6712 107.854 22.9117 106.645 23.3791 105.516C23.8465 104.388 24.5316 103.363 25.3953 102.499C26.2589 101.635 27.2842 100.95 28.4126 100.483C29.541 100.015 30.7505 99.7749 31.9718 99.7749C33.1932 99.7749 34.4026 100.015 35.5311 100.483C36.6595 100.95 37.6848 101.635 38.5484 102.499C39.412 103.363 40.0971 104.388 40.5645 105.516C41.0319 106.645 41.2725 107.854 41.2725 109.076V114.4C41.2725 116.867 42.2524 119.233 43.9966 120.977C45.7408 122.721 48.1065 123.701 50.5732 123.701C53.0399 123.701 55.4055 122.721 57.1498 120.977C58.894 119.233 59.8739 116.867 59.8739 114.4V111.749C59.8735 109.311 60.831 106.969 62.5402 105.23C64.2493 103.49 66.5734 102.491 69.0118 102.449C71.4785 102.449 73.8441 103.429 75.5883 105.173C77.3326 106.917 78.3124 109.283 78.3124 111.749V114.4C78.3124 116.867 79.2923 119.233 81.0366 120.977C82.7808 122.721 85.1464 123.701 87.6131 123.701C90.0798 123.701 92.4455 122.721 94.1897 120.977C95.9339 119.233 96.9138 116.867 96.9138 114.4V109.076C96.8706 106.609 97.8091 104.226 99.5228 102.451C101.236 100.677 103.585 99.6553 106.052 99.6121C108.518 99.5689 110.901 100.507 112.676 102.221C114.451 103.935 115.472 106.283 115.515 108.75V114.4C115.511 115.74 115.797 117.064 116.352 118.283C125.799 109.11 132.312 97.3398 135.067 84.4631C137.822 71.5863 136.695 58.1817 131.828 45.946C126.961 33.7103 118.573 23.1936 107.727 15.727C96.8801 8.26037 84.0621 4.17958 70.8952 4.00116V4.00116ZM70.8952 90.2649C66.9748 90.2925 63.1346 89.155 59.8618 86.9966C56.589 84.8382 54.0312 81.7562 52.5128 78.1417C50.9944 74.5273 50.5839 70.5432 51.3335 66.6951C52.083 62.847 53.9588 59.3082 56.7228 56.5279C59.4868 53.7476 63.0144 51.8509 66.858 51.0787C70.7017 50.3065 74.6881 50.6934 78.3114 52.1904C81.9348 53.6875 85.0318 56.2271 87.2095 59.4871C89.3872 62.7471 90.5473 66.5805 90.5428 70.501C90.552 73.0903 90.0511 75.6561 89.0687 78.0518C88.0862 80.4476 86.6416 82.6264 84.8171 84.4638C82.9926 86.3012 80.8241 87.7612 78.4354 88.7606C76.0467 89.76 73.4845 90.279 70.8952 90.2882V90.2649Z" fill="#EE66A3"/>
<path d="M53.6424 94.613L49.9221 101.635" stroke="white" stroke-width="4.65034" stroke-linecap="round" stroke-linejoin="round"/>
<path d="M102.61 49.6675L100.378 57.294" stroke="white" stroke-width="4.65034" stroke-linecap="round" stroke-linejoin="round"/>
<path d="M88.1014 95.7523L88.0084 103.704" stroke="white" stroke-width="4.65034" stroke-linecap="round" stroke-linejoin="round"/>
<path d="M116.073 82.1268L120.956 88.3815" stroke="white" stroke-width="4.65034" stroke-linecap="round" stroke-linejoin="round"/>
<path d="M114.934 70.8032L107.052 71.2915" stroke="white" stroke-width="4.65034" stroke-linecap="round" stroke-linejoin="round"/>
<path d="M84.4044 34.5771L80.6842 41.5758" stroke="white" stroke-width="4.65034" stroke-linecap="round" stroke-linejoin="round"/>
<path d="M125.002 53.504L121.305 60.526" stroke="white" stroke-width="4.65034" stroke-linecap="round" stroke-linejoin="round"/>
<path d="M107.517 37.5301L114.469 41.2504" stroke="white" stroke-width="4.65034" stroke-linecap="round" stroke-linejoin="round"/>
<path d="M96.9138 82.6848L103.866 86.4283" stroke="white" stroke-width="4.65034" stroke-linecap="round" stroke-linejoin="round"/>
<path d="M89.171 16.8593L93.7981 23.3" stroke="white" stroke-width="4.65034" stroke-linecap="round" stroke-linejoin="round"/>
<path d="M73.2203 19.51L70.9184 27.1133" stroke="white" stroke-width="4.65034" stroke-linecap="round" stroke-linejoin="round"/>
<path d="M36.2734 62.5489L38.5056 70.1754" stroke="white" stroke-width="4.65034" stroke-linecap="round" stroke-linejoin="round"/>
<path d="M41.9003 82.6848L37.0175 88.9395" stroke="white" stroke-width="4.65034" stroke-linecap="round" stroke-linejoin="round"/>
<path d="M44.2254 45.5519L44.458 53.4807" stroke="white" stroke-width="4.65034" stroke-linecap="round" stroke-linejoin="round"/>
<path d="M57.8044 33.9028L61.5015 40.9016" stroke="white" stroke-width="4.65034" stroke-linecap="round" stroke-linejoin="round"/>
<path d="M19.7879 51.9229L23.5082 58.9216" stroke="white" stroke-width="4.65034" stroke-linecap="round" stroke-linejoin="round"/>
<path d="M38.6218 32.717L31.6695 36.4373" stroke="white" stroke-width="4.65034" stroke-linecap="round" stroke-linejoin="round"/>
<path d="M25.1359 75.4303L18.1603 79.1506" stroke="white" stroke-width="4.65034" stroke-linecap="round" stroke-linejoin="round"/>
<path d="M51.7823 16.8593L47.1785 23.3" stroke="white" stroke-width="4.65034" stroke-linecap="round" stroke-linejoin="round"/>
<path opacity="0.3" d="M124.932 32.2287C127.034 38.8222 128.108 45.7 128.118 52.6204C128.212 66.7038 123.801 80.4485 115.529 91.8471C107.257 103.246 95.5574 111.701 82.1389 115.978C68.7204 120.255 54.2858 120.13 40.9433 115.621C27.6009 111.113 16.0494 102.456 7.9761 90.916C10.9413 99.954 15.8207 108.246 22.2816 115.227C28.7426 122.208 36.633 127.714 45.415 131.368C54.1969 135.023 63.6636 136.741 73.1697 136.404C82.6757 136.068 91.9975 133.686 100.499 129.42C109.001 125.154 116.483 119.104 122.434 111.684C128.385 104.264 132.667 95.6477 134.986 86.4227C137.305 77.1977 137.607 67.5811 135.872 58.2287C134.137 48.8763 130.406 40.008 124.932 32.2287V32.2287Z" fill="#010101"/>
<path d="M70.8952 4.00116C57.9795 4.08678 45.3676 7.92783 34.5969 15.0561C23.8261 22.1844 15.3616 32.2921 10.2351 44.1471C5.10862 56.0021 3.54156 69.0924 5.72493 81.8225C7.9083 94.5526 13.7478 106.373 22.5316 115.842C22.5316 115.353 22.5316 114.888 22.6712 114.4V109.076C22.6712 107.854 22.9117 106.645 23.3791 105.516C23.8465 104.388 24.5316 103.363 25.3953 102.499C26.2589 101.635 27.2842 100.95 28.4126 100.483C29.541 100.015 30.7505 99.7749 31.9718 99.7749C33.1932 99.7749 34.4026 100.015 35.5311 100.483C36.6595 100.95 37.6848 101.635 38.5484 102.499C39.412 103.363 40.0971 104.388 40.5645 105.516C41.0319 106.645 41.2725 107.854 41.2725 109.076V114.4C41.2725 116.867 42.2524 119.233 43.9966 120.977C45.7408 122.721 48.1065 123.701 50.5732 123.701C53.0399 123.701 55.4055 122.721 57.1498 120.977C58.894 119.233 59.8739 116.867 59.8739 114.4V111.749C59.8735 109.311 60.831 106.969 62.5402 105.23C64.2493 103.49 66.5734 102.491 69.0118 102.449C71.4785 102.449 73.8441 103.429 75.5883 105.173C77.3326 106.917 78.3124 109.283 78.3124 111.749V114.4C78.3124 116.867 79.2923 119.233 81.0366 120.977C82.7808 122.721 85.1464 123.701 87.6131 123.701C90.0798 123.701 92.4455 122.721 94.1897 120.977C95.9339 119.233 96.9138 116.867 96.9138 114.4V109.076C96.8706 106.609 97.8091 104.226 99.5228 102.451C101.236 100.677 103.585 99.6553 106.052 99.6121C108.518 99.5689 110.901 100.507 112.676 102.221C114.451 103.935 115.472 106.283 115.515 108.75V114.4C115.511 115.74 115.797 117.064 116.352 118.283C125.799 109.11 132.312 97.3398 135.067 84.4631C137.822 71.5863 136.695 58.1817 131.828 45.946C126.961 33.7103 118.573 23.1936 107.727 15.727C96.8801 8.26037 84.0621 4.17958 70.8952 4.00116V4.00116ZM70.8952 90.2649C66.9748 90.2925 63.1346 89.155 59.8618 86.9966C56.589 84.8382 54.0312 81.7562 52.5128 78.1417C50.9944 74.5273 50.5839 70.5432 51.3335 66.6951C52.083 62.847 53.9588 59.3082 56.7228 56.5279C59.4868 53.7476 63.0144 51.8509 66.858 51.0787C70.7017 50.3065 74.6881 50.6934 78.3114 52.1904C81.9348 53.6875 85.0318 56.2271 87.2095 59.4871C89.3872 62.7471 90.5473 66.5805 90.5428 70.501C90.552 73.0903 90.0511 75.6561 89.0687 78.0518C88.0862 80.4476 86.6416 82.6264 84.8171 84.4638C82.9926 86.3012 80.8241 87.7612 78.4354 88.7606C76.0467 89.76 73.4845 90.279 70.8952 90.2882V90.2649Z" stroke="#010101" stroke-width="6.97551" stroke-linecap="round" stroke-linejoin="round"/>
<path d="M70.8951 4.00118C57.7262 3.9229 44.8304 7.75641 33.8427 15.0158C22.855 22.2751 14.2701 32.6334 9.1762 44.7775C4.08232 56.9217 2.70888 70.3048 5.22998 83.2305C7.75107 96.1561 14.0532 108.042 23.3374 117.382C32.6217 126.722 44.4699 133.095 57.3803 135.693C70.2907 138.291 83.6818 136.997 95.8561 131.976C108.03 126.954 118.44 118.431 125.764 107.487C133.089 96.5428 136.999 83.6702 137 70.501C137.027 61.7936 135.339 53.1661 132.032 45.1114C128.724 37.0566 123.862 29.7323 117.723 23.5569C111.585 17.3815 104.29 12.476 96.2547 9.12058C88.2198 5.76516 79.6025 4.02557 70.8951 4.00118V4.00118ZM70.8951 90.2649C66.9748 90.2926 63.1346 89.155 59.8618 86.9966C56.589 84.8382 54.0311 81.7562 52.5127 78.1418C50.9944 74.5273 50.5839 70.5432 51.3335 66.6951C52.083 62.847 53.9588 59.3083 56.7228 56.5279C59.4867 53.7476 63.0144 51.851 66.858 51.0787C70.7016 50.3065 74.688 50.6934 78.3114 52.1905C81.9348 53.6875 85.0318 56.2271 87.2094 59.4871C89.3871 62.7471 90.5473 66.5805 90.5428 70.501C90.552 73.0903 90.0511 75.6561 89.0686 78.0519C88.0862 80.4476 86.6415 82.6264 84.8171 84.4638C82.9926 86.3012 80.8241 87.7613 78.4354 88.7606C76.0466 89.76 73.4845 90.279 70.8951 90.2882V90.2649Z" stroke="#010101" stroke-width="6.97551" stroke-linecap="round" stroke-linejoin="round"/>
</svg>
