<svg width="745" height="745" viewBox="0 0 745 745" fill="none" xmlns="http://www.w3.org/2000/svg">
<path d="M372.483 19C303.74 19.4557 236.614 39.8994 179.288 77.8394C121.961 115.779 76.909 169.577 49.6235 232.674C22.3381 295.772 13.9975 365.444 25.6183 433.2C37.2392 500.955 68.3196 563.866 115.071 614.265C115.071 611.666 115.071 609.191 115.814 606.592V578.252C115.814 571.752 117.094 565.315 119.582 559.309C122.07 553.303 125.716 547.846 130.313 543.249C134.909 538.652 140.366 535.006 146.372 532.518C152.378 530.031 158.815 528.75 165.316 528.75C171.817 528.75 178.254 530.031 184.26 532.518C190.266 535.006 195.723 538.652 200.319 543.249C204.916 547.846 208.562 553.303 211.05 559.309C213.538 565.315 214.818 571.752 214.818 578.252V606.592C214.818 619.721 220.034 632.312 229.317 641.596C238.601 650.879 251.192 656.095 264.321 656.095C277.45 656.095 290.041 650.879 299.324 641.596C308.608 632.312 313.823 619.721 313.823 606.592V592.484C313.821 579.504 318.917 567.043 328.014 557.784C337.111 548.525 349.481 543.209 362.459 542.982C375.588 542.982 388.179 548.197 397.462 557.481C406.746 566.764 411.961 579.355 411.961 592.484V606.592C411.961 619.721 417.177 632.312 426.46 641.596C435.744 650.879 448.335 656.095 461.464 656.095C474.592 656.095 487.184 650.879 496.467 641.596C505.751 632.312 510.966 619.721 510.966 606.592V578.252C510.736 565.124 515.731 552.441 524.852 542.995C533.973 533.549 546.473 528.114 559.602 527.884C572.731 527.654 585.413 532.649 594.859 541.77C604.305 550.891 609.741 563.391 609.971 576.52V606.592C609.95 613.722 611.47 620.772 614.426 627.26C664.707 578.435 699.373 515.79 714.036 447.254C728.698 378.718 722.698 307.373 696.794 242.249C670.89 177.125 626.247 121.151 568.517 81.41C510.786 41.6694 442.563 19.9496 372.483 19V19ZM372.483 478.134C351.617 478.281 331.178 472.226 313.759 460.739C296.34 449.251 282.725 432.847 274.644 413.609C266.563 394.371 264.378 373.166 268.367 352.685C272.357 332.204 282.34 313.369 297.052 298.571C311.763 283.772 330.538 273.678 350.996 269.568C371.453 265.457 392.671 267.517 411.956 275.485C431.241 283.453 447.725 296.97 459.315 314.321C470.906 331.672 477.081 352.075 477.057 372.942C477.106 386.723 474.44 400.379 469.211 413.131C463.982 425.882 456.293 437.478 446.582 447.258C436.871 457.037 425.33 464.808 412.616 470.127C399.902 475.446 386.265 478.209 372.483 478.258V478.134Z" fill="#EE66A3" fill-opacity="0.5"/>
<path d="M277.388 503.376L257.587 540.75" stroke="#EE66A3" stroke-width="24.7512" stroke-linecap="round" stroke-linejoin="round"/>
<path d="M538.018 264.156L526.137 304.748" stroke="#EE66A3" stroke-width="24.7512" stroke-linecap="round" stroke-linejoin="round"/>
<path d="M460.793 509.44L460.298 551.764" stroke="#EE66A3" stroke-width="24.7512" stroke-linecap="round" stroke-linejoin="round"/>
<path d="M609.672 436.919L635.661 470.21" stroke="#EE66A3" stroke-width="24.7512" stroke-linecap="round" stroke-linejoin="round"/>
<path d="M603.608 376.65L561.654 379.249" stroke="#EE66A3" stroke-width="24.7512" stroke-linecap="round" stroke-linejoin="round"/>
<path d="M441.116 183.838L421.315 221.089" stroke="#EE66A3" stroke-width="24.7512" stroke-linecap="round" stroke-linejoin="round"/>
<path d="M657.194 284.576L637.517 321.95" stroke="#EE66A3" stroke-width="24.7512" stroke-linecap="round" stroke-linejoin="round"/>
<path d="M564.13 199.555L601.133 219.356" stroke="#EE66A3" stroke-width="24.7512" stroke-linecap="round" stroke-linejoin="round"/>
<path d="M507.697 439.889L544.7 459.814" stroke="#EE66A3" stroke-width="24.7512" stroke-linecap="round" stroke-linejoin="round"/>
<path d="M466.486 89.5366L491.113 123.817" stroke="#EE66A3" stroke-width="24.7512" stroke-linecap="round" stroke-linejoin="round"/>
<path d="M381.59 103.645L369.338 144.113" stroke="#EE66A3" stroke-width="24.7512" stroke-linecap="round" stroke-linejoin="round"/>
<path d="M184.942 332.717L196.823 373.309" stroke="#EE66A3" stroke-width="24.7512" stroke-linecap="round" stroke-linejoin="round"/>
<path d="M214.892 439.889L188.903 473.18" stroke="#EE66A3" stroke-width="24.7512" stroke-linecap="round" stroke-linejoin="round"/>
<path d="M227.265 242.251L228.503 284.452" stroke="#EE66A3" stroke-width="24.7512" stroke-linecap="round" stroke-linejoin="round"/>
<path d="M299.54 180.25L319.217 217.5" stroke="#EE66A3" stroke-width="24.7512" stroke-linecap="round" stroke-linejoin="round"/>
<path d="M97.1982 276.16L116.999 313.411" stroke="#EE66A3" stroke-width="24.7512" stroke-linecap="round" stroke-linejoin="round"/>
<path d="M197.44 173.938L160.438 193.739" stroke="#EE66A3" stroke-width="24.7512" stroke-linecap="round" stroke-linejoin="round"/>
<path d="M125.663 401.277L88.5364 421.078" stroke="#EE66A3" stroke-width="24.7512" stroke-linecap="round" stroke-linejoin="round"/>
<path d="M267.487 89.5366L242.983 123.817" stroke="#EE66A3" stroke-width="24.7512" stroke-linecap="round" stroke-linejoin="round"/>
<path opacity="0.3" d="M675.987 170.15C687.767 206.329 693.788 244.068 693.84 282.041C694.368 359.319 669.647 434.737 623.288 497.282C576.929 559.827 511.36 606.222 436.157 629.692C360.954 653.161 280.057 652.475 205.281 627.735C130.504 602.994 65.7652 555.494 20.519 492.173C37.137 541.766 64.4833 587.266 100.693 625.572C136.903 663.877 181.124 694.086 230.341 714.14C279.559 734.193 332.614 743.618 385.89 741.773C439.165 739.928 491.408 726.855 539.055 703.447C586.702 680.039 628.632 646.845 661.987 606.13C695.341 565.415 719.335 518.136 732.332 467.518C745.329 416.9 747.023 364.132 737.3 312.815C727.576 261.497 706.663 212.836 675.987 170.15V170.15Z" fill="#010101" fill-opacity="0.2"/>
<path d="M374.496 19C305.36 19.4559 237.85 39.9078 180.196 77.8628C122.541 115.818 77.2315 169.637 49.79 232.759C22.3485 295.882 13.9602 365.582 25.6475 433.364C37.3348 501.147 68.593 564.083 115.612 614.502C115.612 611.902 115.612 609.426 116.359 606.826V578.475C116.359 571.972 117.647 565.532 120.148 559.524C122.65 553.515 126.318 548.056 130.941 543.458C135.564 538.859 141.052 535.211 147.092 532.723C153.132 530.234 159.606 528.953 166.144 528.953C172.682 528.953 179.156 530.234 185.196 532.723C191.237 535.211 196.725 538.859 201.348 543.458C205.971 548.056 209.638 553.515 212.14 559.524C214.642 565.532 215.93 571.972 215.93 578.475V606.826C215.93 619.961 221.175 632.557 230.512 641.844C239.848 651.131 252.511 656.348 265.715 656.348C278.919 656.348 291.582 651.131 300.919 641.844C310.255 632.557 315.501 619.961 315.501 606.826V592.713C315.499 579.727 320.624 567.261 329.773 557.998C338.922 548.735 351.362 543.418 364.415 543.191C377.619 543.191 390.282 548.408 399.618 557.695C408.955 566.982 414.2 579.579 414.2 592.713V606.826C414.2 619.961 419.446 632.557 428.782 641.844C438.119 651.131 450.782 656.348 463.986 656.348C477.19 656.348 489.853 651.131 499.189 641.844C508.526 632.557 513.771 619.961 513.771 606.826V578.475C513.54 565.341 518.564 552.654 527.737 543.204C536.91 533.754 549.482 528.316 562.685 528.086C575.889 527.857 588.644 532.854 598.144 541.978C607.644 551.103 613.111 563.608 613.342 576.742V606.826C613.321 613.959 614.85 621.011 617.823 627.502C668.392 578.657 703.256 515.987 718.003 447.424C732.749 378.861 726.714 307.488 700.662 242.338C674.61 177.188 629.712 121.191 571.651 81.4348C513.591 41.6784 444.977 19.95 374.496 19V19ZM374.496 478.317C353.511 478.464 332.955 472.407 315.436 460.914C297.917 449.422 284.225 433.012 276.098 413.766C267.97 394.521 265.773 373.307 269.785 352.818C273.797 332.328 283.838 313.486 298.633 298.682C313.429 283.878 332.312 273.779 352.886 269.667C373.461 265.556 394.799 267.616 414.195 275.587C433.59 283.558 450.168 297.08 461.825 314.438C473.482 331.796 479.692 352.208 479.668 373.082C479.717 386.87 477.036 400.531 471.777 413.287C466.518 426.044 458.785 437.645 449.019 447.428C439.253 457.212 427.645 464.986 414.859 470.307C402.072 475.628 388.357 478.392 374.496 478.441V478.317Z" stroke="#EE66A3" stroke-opacity="0.5" stroke-width="37.1267" stroke-linecap="round" stroke-linejoin="round"/>
<path d="M374.046 19.0063C303.954 18.5896 235.318 38.9933 176.836 77.6307C118.355 116.268 72.6619 171.4 45.55 236.036C18.4382 300.673 11.1281 371.904 24.5465 440.7C37.9649 509.496 71.5075 572.759 120.922 622.469C170.337 672.179 233.399 706.098 302.114 719.927C370.828 733.755 442.102 726.87 506.899 700.144C571.696 673.418 627.099 628.054 666.084 569.804C705.07 511.554 725.882 443.04 725.883 372.948C726.03 326.603 717.045 280.684 699.441 237.813C681.837 194.942 655.96 155.959 623.287 123.091C590.614 90.2224 551.786 64.113 509.02 46.254C466.255 28.3949 420.39 19.1361 374.046 19.0063ZM374.046 478.14C353.18 478.287 332.741 472.233 315.321 460.745C297.902 449.257 284.288 432.853 276.206 413.615C268.125 394.378 265.94 373.173 269.93 352.691C273.919 332.21 283.903 313.375 298.614 298.577C313.325 283.779 332.101 273.684 352.558 269.574C373.016 265.464 394.233 267.523 413.518 275.491C432.804 283.459 449.287 296.976 460.878 314.327C472.468 331.678 478.643 352.081 478.619 372.948C478.668 386.729 476.002 400.386 470.773 413.137C465.544 425.888 457.855 437.485 448.144 447.264C438.434 457.044 426.892 464.815 414.178 470.134C401.464 475.453 387.827 478.215 374.046 478.264V478.14Z" fill="#010101" fill-opacity="0.1"/>
<path d="M410.775 462C399.563 466.69 387.568 469.211 375.425 469.432C374.951 469.357 374.469 469.32 373.983 469.323C354.864 469.458 336.136 463.911 320.176 453.384C304.215 442.858 291.74 427.828 284.335 410.201C276.93 392.573 274.929 373.144 278.584 354.377C282.24 335.61 291.387 318.352 304.867 304.793C318.346 291.234 335.55 281.984 354.295 278.218C373.04 274.452 392.481 276.339 410.152 283.64C427.822 290.941 442.926 303.326 453.546 319.225C464.166 335.123 469.824 353.818 469.802 372.938L469.802 372.979C469.847 385.603 467.405 398.112 462.615 409.792C457.826 421.471 450.782 432.094 441.888 441.052C432.993 450.009 422.421 457.128 410.775 462ZM374.084 10.1893C302.252 9.76501 231.91 30.6768 171.976 70.2742C112.038 109.874 65.2065 166.379 37.4193 232.626C9.63199 298.872 2.13982 371.878 15.8925 442.388C29.6451 512.897 64.0234 577.736 114.669 628.685C165.315 679.634 229.948 714.398 300.374 728.57C370.801 742.743 443.85 735.686 510.261 708.295C576.672 680.903 633.455 634.409 673.411 574.708C713.363 515.015 734.694 444.804 734.7 372.976C734.85 325.473 725.641 278.406 707.597 234.464C689.553 190.521 663.029 150.564 629.54 116.875C596.051 83.185 556.252 56.4232 512.418 38.1179C468.588 19.8143 421.582 10.3241 374.084 10.1893Z" stroke="#010101" stroke-opacity="0.2" stroke-width="17.6341" stroke-linecap="round" stroke-linejoin="round"/>
</svg>
