<svg width="274" height="64" viewBox="0 0 274 64" fill="none" xmlns="http://www.w3.org/2000/svg">
<path d="M39.1419 3.132C39.0625 0.510985 33.5028 0.590408 30.6435 0.590408C27.7048 0.590408 27.9431 3.21142 27.9431 3.21142C27.9431 3.21142 27.3871 9.80366 26.9105 18.3815C18.1738 16.5547 8.80173 20.4466 4.19511 27.833C-1.52346 37.2051 -0.888065 50.6279 8.80173 56.9819C14.3615 60.6354 21.7479 61.0325 28.4196 59.6823C30.0875 60.7148 32.9468 60.4766 35.409 60.1589C39.0625 59.6823 39.1419 56.1876 39.1419 56.1876C38.586 38.4759 38.586 20.7643 39.1419 3.132ZM26.434 30.1364C26.1957 36.5697 26.0369 41.8118 26.0369 46.9744C8.00749 52.6929 10.2314 24.2589 26.434 30.1364Z" fill="#373737"/>
<path d="M67.6324 60.556C78.593 60.556 87.568 50.6279 87.568 38.6348C87.568 26.6417 78.593 16.793 67.6324 16.793C56.6718 16.793 47.6968 26.6417 47.6968 38.6348C47.6968 50.6279 56.6718 60.556 67.6324 60.556ZM67.6324 28.5479C72.3979 28.5479 76.2103 33.0751 76.2103 38.6348C76.2103 44.1945 72.3979 48.7217 67.6324 48.7217C62.8669 48.7217 59.134 44.1945 59.134 38.6348C59.134 33.0751 62.8669 28.5479 67.6324 28.5479Z" fill="#373737"/>
<path d="M114.163 19.7317V17.1107C114.084 15.284 108.445 15.6017 105.586 15.7605C102.647 15.9194 102.885 17.6667 102.885 17.6667C102.806 19.7317 101.138 55.314 101.853 57.2996C102.409 60.7148 107.095 60.6354 110.828 60.2383C114.402 59.9206 114.64 57.2996 114.64 57.2996L114.402 40.6204C115.275 24.2589 129.254 25.3709 131.081 36.0138C131.637 39.2702 131.081 42.7649 130.684 46.4978C130.287 49.9131 129.731 56.1876 131.637 58.6498C133.305 60.8737 136.958 60.6354 139.818 60.2383C143.471 59.8412 143.709 56.1876 143.709 54.5991L143.868 41.6529C143.868 33.7105 142.677 28.389 140.374 24.7355C134.893 16.0782 122.185 16.3165 114.163 19.7317Z" fill="#373737"/>
<path d="M193.079 18.6198C193.079 16.7136 187.519 16.5547 184.66 16.3959C181.641 16.2371 181.403 18.1432 181.403 18.1432C180.45 27.0388 181.403 35.8549 177.432 43.8768C173.222 52.3752 165.836 48.4834 165.836 34.5047C165.836 29.3421 166.392 24.5766 167.186 19.97C167.424 17.0313 161.865 16.7136 158.926 16.4753C157.099 16.3959 156.067 17.5873 155.749 19.1758C154.24 25.3709 153.843 31.7248 153.922 37.8405C154.081 51.7398 163.215 66.1951 179.497 57.935C180.45 60.9531 184.818 60.6354 188.234 60.2383C191.967 59.6823 192.046 57.2996 192.046 57.2996C191.728 44.3534 192.046 31.4866 193.079 18.6198Z" fill="#373737"/>
<path d="M218.856 48.1657C217.188 44.1151 217.982 36.4903 218.061 32.4397C223.224 32.9162 227.831 33.3928 228.863 33.1545C231.166 32.5985 231.166 27.9919 231.008 24.3384C230.928 20.6054 229.181 20.2877 229.181 20.2877C225.686 20.2083 222.271 20.1289 218.856 20.0494C219.173 14.6486 219.65 9.08884 219.57 3.29084C219.412 0.0344338 213.852 0.590408 210.993 0.749255C209.325 0.987531 207.974 1.8612 207.895 3.29084C207.498 8.61229 207.26 13.7749 207.021 19.8112C205.353 19.8112 203.685 19.8112 202.097 19.8906C201.303 19.8112 200.985 24.5766 201.462 27.9125C201.859 30.3746 202.335 31.0895 204.559 31.2483C204.956 31.2483 205.353 31.3277 205.83 31.3277C205.671 36.3315 205.433 40.541 205.83 44.6711C206.624 53.1695 210.754 61.5885 219.809 62.7799C223.145 63.2564 227.116 62.7799 229.816 60C231.246 58.4909 232.04 55.3934 231.643 52.6929C231.246 49.8337 229.578 48.96 226.957 49.9131C223.542 51.1045 220.444 51.8193 218.856 48.1657Z" fill="#373737"/>
<path d="M263.778 28.1507C263.778 29.5804 264.572 30.0569 265.763 30.0569C269.496 30.1364 272.991 28.1507 273.07 25.1326C273.229 17.5078 266.002 13.1395 258.059 13.0601C253.929 12.9806 247.496 14.0926 243.524 18.2227C240.903 21.0025 239.712 25.0532 240.347 28.7067C241.221 33.3928 244.716 35.9344 248.687 37.8405C251.864 39.3496 260.283 40.9381 261.554 44.6711C262.745 48.2452 259.886 50.2308 256.868 50.0719C252.34 49.8337 249.005 46.7361 247.416 42.2883C246.701 39.985 244.795 39.7467 243.286 41.0175C243.048 41.1764 242.81 41.4146 242.651 41.6529C239.156 45.4653 240.03 51.7398 243.763 55.4728C249.64 61.3502 258.774 63.0976 266.24 58.4115C272.276 54.5991 275.85 47.2921 272.435 39.9056C270.608 36.0932 267.272 33.1545 263.063 31.2483C261.871 30.6129 257.9 29.3421 255.279 27.9919C253.214 26.8799 251.308 24.1795 254.882 22.8293C257.741 21.7968 263.778 22.7499 263.778 28.1507Z" fill="#373737"/>
<path d="M70.4247 12.5574C65.4833 12.528 60.6445 13.9664 56.5216 16.6903C52.3988 19.4142 49.1775 23.3009 47.2661 27.8577C45.3547 32.4145 44.8394 37.4363 45.7854 42.2863C46.7314 47.1363 49.0961 51.5963 52.5798 55.1008C56.0635 58.6054 60.5093 60.9966 65.3536 61.9715C70.1979 62.9464 75.2226 62.461 79.7907 60.5768C84.3588 58.6927 88.2647 55.4946 91.0131 51.388C93.7615 47.2815 95.2288 42.4513 95.2289 37.5099C95.2392 34.2426 94.6058 31.0054 93.3647 27.983C92.1237 24.9606 90.2993 22.2124 87.9959 19.8952C85.6925 17.578 82.9552 15.7373 79.9403 14.4783C76.9254 13.2192 73.6919 12.5665 70.4247 12.5574V12.5574ZM70.4247 44.9258C68.9537 44.9362 67.5127 44.5094 66.2847 43.6995C65.0567 42.8896 64.0969 41.7331 63.5271 40.3769C62.9574 39.0206 62.8034 37.5257 63.0846 36.0818C63.3659 34.6379 64.0697 33.3101 65.1068 32.2668C66.144 31.2235 67.4676 30.5119 68.9099 30.2221C70.3521 29.9323 71.8479 30.0775 73.2075 30.6393C74.5671 31.201 75.7291 32.1539 76.5463 33.3772C77.3634 34.6004 77.7987 36.0388 77.797 37.5099C77.8005 38.4815 77.6125 39.4442 77.2439 40.3431C76.8752 41.2421 76.3332 42.0596 75.6486 42.7491C74.964 43.4385 74.1503 43.9864 73.254 44.3614C72.3577 44.7363 71.3963 44.9311 70.4247 44.9345V44.9258Z" fill="#E3B381"/>
<path d="M70.4247 12.5573C65.5784 12.5895 60.8461 14.0307 56.8046 16.7055C52.7631 19.3802 49.587 23.1728 47.6634 27.6212C45.7398 32.0695 45.1518 36.9813 45.9711 41.758C46.7903 46.5346 48.9815 50.9698 52.2774 54.5229C52.2774 54.3397 52.2774 54.1652 52.3297 53.982V51.984C52.3297 51.5257 52.42 51.0719 52.5954 50.6485C52.7708 50.2251 53.0278 49.8404 53.3519 49.5163C53.676 49.1923 54.0607 48.9352 54.4841 48.7598C54.9075 48.5845 55.3613 48.4942 55.8196 48.4942C56.2779 48.4942 56.7317 48.5845 57.1551 48.7598C57.5785 48.9352 57.9632 49.1923 58.2873 49.5163C58.6114 49.8404 58.8684 50.2251 59.0438 50.6485C59.2192 51.0719 59.3095 51.5257 59.3095 51.984V53.982C59.3095 54.9076 59.6771 55.7952 60.3316 56.4497C60.9861 57.1042 61.8738 57.4719 62.7993 57.4719C63.7249 57.4719 64.6126 57.1042 65.267 56.4497C65.9215 55.7952 66.2892 54.9076 66.2892 53.982V52.9874C66.2891 52.0723 66.6483 51.1938 67.2897 50.541C67.931 49.8883 68.803 49.5135 69.718 49.4975C70.6435 49.4975 71.5312 49.8652 72.1857 50.5197C72.8402 51.1741 73.2078 52.0618 73.2078 52.9874V53.982C73.2078 54.9076 73.5755 55.7952 74.23 56.4497C74.8845 57.1042 75.7721 57.4719 76.6977 57.4719C77.6233 57.4719 78.5109 57.1042 79.1654 56.4497C79.8199 55.7952 80.1876 54.9076 80.1876 53.982V51.984C80.1714 51.0585 80.5235 50.1644 81.1665 49.4985C81.8096 48.8325 82.6908 48.4493 83.6163 48.4331C84.5419 48.4169 85.436 48.7691 86.1019 49.4121C86.7679 50.0551 87.1511 50.9363 87.1673 51.8619V53.982C87.1658 54.4846 87.273 54.9816 87.4814 55.439C91.0262 51.9969 93.4701 47.5805 94.5038 42.7488C95.5374 37.9171 95.1144 32.8873 93.2882 28.2962C91.462 23.705 88.3148 19.7589 84.2448 16.9572C80.1749 14.1555 75.3653 12.6243 70.4247 12.5573V12.5573ZM70.4247 44.9258C68.9537 44.9362 67.5127 44.5093 66.2847 43.6994C65.0566 42.8895 64.0969 41.7331 63.5271 40.3769C62.9574 39.0206 62.8034 37.5257 63.0846 36.0818C63.3659 34.6379 64.0697 33.31 65.1068 32.2668C66.1439 31.2235 67.4676 30.5119 68.9098 30.2221C70.3521 29.9323 71.8479 30.0775 73.2075 30.6392C74.567 31.201 75.7291 32.1539 76.5462 33.3771C77.3634 34.6004 77.7987 36.0388 77.797 37.5098C77.8004 38.4814 77.6125 39.4442 77.2439 40.3431C76.8752 41.2421 76.3331 42.0596 75.6486 42.7491C74.964 43.4385 74.1503 43.9864 73.254 44.3613C72.3577 44.7363 71.3963 44.9311 70.4247 44.9345V44.9258Z" fill="#EE66A3"/>
<path d="M63.951 46.5573L62.5551 49.1922" stroke="white" stroke-width="1.74493" stroke-linecap="round" stroke-linejoin="round"/>
<path d="M82.3251 29.6926L81.4875 32.5543" stroke="white" stroke-width="1.74493" stroke-linecap="round" stroke-linejoin="round"/>
<path d="M76.8808 46.9848L76.8459 49.9687" stroke="white" stroke-width="1.74493" stroke-linecap="round" stroke-linejoin="round"/>
<path d="M87.3767 41.8722L89.2089 44.2191" stroke="white" stroke-width="1.74493" stroke-linecap="round" stroke-linejoin="round"/>
<path d="M86.9492 37.6233L83.9916 37.8065" stroke="white" stroke-width="1.74493" stroke-linecap="round" stroke-linejoin="round"/>
<path d="M75.4937 24.0302L74.0978 26.6564" stroke="white" stroke-width="1.74493" stroke-linecap="round" stroke-linejoin="round"/>
<path d="M90.7269 31.1321L89.3397 33.767" stroke="white" stroke-width="1.74493" stroke-linecap="round" stroke-linejoin="round"/>
<path d="M84.1659 25.1383L86.7746 26.5343" stroke="white" stroke-width="1.74493" stroke-linecap="round" stroke-linejoin="round"/>
<path d="M80.1875 42.0816L82.7962 43.4862" stroke="white" stroke-width="1.74493" stroke-linecap="round" stroke-linejoin="round"/>
<path d="M77.2823 17.3821L79.0186 19.7988" stroke="white" stroke-width="1.74493" stroke-linecap="round" stroke-linejoin="round"/>
<path d="M71.2971 18.3767L70.4333 21.2296" stroke="white" stroke-width="1.74493" stroke-linecap="round" stroke-linejoin="round"/>
<path d="M57.4337 34.526L58.2713 37.3877" stroke="white" stroke-width="1.74493" stroke-linecap="round" stroke-linejoin="round"/>
<path d="M59.5451 42.0816L57.7129 44.4285" stroke="white" stroke-width="1.74493" stroke-linecap="round" stroke-linejoin="round"/>
<path d="M60.4175 28.1483L60.5047 31.1234" stroke="white" stroke-width="1.74493" stroke-linecap="round" stroke-linejoin="round"/>
<path d="M65.5127 23.7773L66.8999 26.4034" stroke="white" stroke-width="1.74493" stroke-linecap="round" stroke-linejoin="round"/>
<path d="M51.2479 30.5388L52.6439 33.165" stroke="white" stroke-width="1.74493" stroke-linecap="round" stroke-linejoin="round"/>
<path d="M58.3148 23.3323L55.7062 24.7283" stroke="white" stroke-width="1.74493" stroke-linecap="round" stroke-linejoin="round"/>
<path d="M53.2546 39.3595L50.6372 40.7554" stroke="white" stroke-width="1.74493" stroke-linecap="round" stroke-linejoin="round"/>
<path d="M63.253 17.3821L61.5255 19.7988" stroke="white" stroke-width="1.74493" stroke-linecap="round" stroke-linejoin="round"/>
<path opacity="0.3" d="M90.7008 23.1491C91.4895 25.6232 91.8927 28.2039 91.8961 30.8006C91.9314 36.0851 90.2763 41.2425 87.1725 45.5195C84.0686 49.7965 79.6787 52.9692 74.6437 54.5741C69.6087 56.179 64.1924 56.1322 59.186 54.4403C54.1795 52.7485 49.8451 49.5003 46.8158 45.1701C47.9284 48.5614 49.7593 51.6729 52.1836 54.2924C54.6079 56.9118 57.5686 58.9777 60.8639 60.349C64.1591 61.7203 67.7112 62.3648 71.2782 62.2386C74.8451 62.1124 78.3429 61.2185 81.5329 59.6178C84.723 58.017 87.5303 55.7471 89.7635 52.9629C91.9966 50.1787 93.603 46.9456 94.4732 43.4841C95.3434 40.0227 95.4568 36.4143 94.8058 32.905C94.1548 29.3957 92.7546 26.0681 90.7008 23.1491V23.1491Z" fill="#010101"/>
<path d="M70.4247 12.5573C65.5784 12.5895 60.8461 14.0307 56.8046 16.7055C52.7631 19.3802 49.587 23.1728 47.6634 27.6212C45.7398 32.0695 45.1518 36.9813 45.9711 41.758C46.7903 46.5346 48.9815 50.9698 52.2774 54.5229C52.2774 54.3397 52.2774 54.1652 52.3297 53.982V51.984C52.3297 51.5257 52.42 51.0719 52.5954 50.6485C52.7708 50.2251 53.0278 49.8404 53.3519 49.5163C53.676 49.1923 54.0607 48.9352 54.4841 48.7598C54.9075 48.5845 55.3613 48.4942 55.8196 48.4942C56.2779 48.4942 56.7317 48.5845 57.1551 48.7598C57.5785 48.9352 57.9632 49.1923 58.2873 49.5163C58.6114 49.8404 58.8684 50.2251 59.0438 50.6485C59.2192 51.0719 59.3095 51.5257 59.3095 51.984V53.982C59.3095 54.9076 59.6771 55.7952 60.3316 56.4497C60.9861 57.1042 61.8738 57.4719 62.7993 57.4719C63.7249 57.4719 64.6126 57.1042 65.267 56.4497C65.9215 55.7952 66.2892 54.9076 66.2892 53.982V52.9874C66.2891 52.0723 66.6483 51.1938 67.2897 50.541C67.931 49.8883 68.803 49.5135 69.718 49.4975C70.6435 49.4975 71.5312 49.8652 72.1857 50.5197C72.8402 51.1741 73.2078 52.0618 73.2078 52.9874V53.982C73.2078 54.9076 73.5755 55.7952 74.23 56.4497C74.8845 57.1042 75.7721 57.4719 76.6977 57.4719C77.6233 57.4719 78.5109 57.1042 79.1654 56.4497C79.8199 55.7952 80.1876 54.9076 80.1876 53.982V51.984C80.1714 51.0585 80.5235 50.1644 81.1665 49.4985C81.8096 48.8325 82.6908 48.4493 83.6163 48.4331C84.5419 48.4169 85.436 48.7691 86.1019 49.4121C86.7679 50.0551 87.1511 50.9363 87.1673 51.8619V53.982C87.1658 54.4846 87.273 54.9816 87.4814 55.439C91.0262 51.9969 93.4701 47.5805 94.5038 42.7488C95.5374 37.9171 95.1144 32.8873 93.2882 28.2962C91.462 23.705 88.3148 19.7589 84.2448 16.9572C80.1749 14.1555 75.3653 12.6243 70.4247 12.5573V12.5573ZM70.4247 44.9258C68.9537 44.9362 67.5127 44.5093 66.2847 43.6994C65.0566 42.8895 64.0969 41.7331 63.5271 40.3769C62.9574 39.0206 62.8034 37.5257 63.0846 36.0818C63.3659 34.6379 64.0697 33.31 65.1068 32.2668C66.1439 31.2235 67.4676 30.5119 68.9098 30.2221C70.3521 29.9323 71.8479 30.0775 73.2075 30.6392C74.567 31.201 75.7291 32.1539 76.5462 33.3771C77.3634 34.6004 77.7987 36.0388 77.797 37.5098C77.8004 38.4814 77.6125 39.4442 77.2439 40.3431C76.8752 41.2421 76.3331 42.0596 75.6486 42.7491C74.964 43.4385 74.1503 43.9864 73.254 44.3613C72.3577 44.7363 71.3963 44.9311 70.4247 44.9345V44.9258Z" stroke="#010101" stroke-width="2.6174" stroke-linecap="round" stroke-linejoin="round"/>
<path d="M70.4247 12.5574C65.4833 12.528 60.6445 13.9664 56.5216 16.6903C52.3988 19.4142 49.1775 23.3009 47.2661 27.8577C45.3547 32.4145 44.8394 37.4363 45.7854 42.2863C46.7314 47.1363 49.0961 51.5963 52.5798 55.1008C56.0635 58.6054 60.5093 60.9966 65.3536 61.9715C70.1979 62.9464 75.2226 62.461 79.7907 60.5768C84.3588 58.6927 88.2647 55.4946 91.0131 51.388C93.7615 47.2815 95.2288 42.4513 95.2289 37.5099C95.2392 34.2426 94.6058 31.0054 93.3647 27.983C92.1237 24.9606 90.2993 22.2124 87.9959 19.8952C85.6925 17.578 82.9552 15.7373 79.9403 14.4783C76.9254 13.2192 73.6919 12.5665 70.4247 12.5574V12.5574ZM70.4247 44.9258C68.9537 44.9362 67.5127 44.5094 66.2847 43.6995C65.0567 42.8896 64.0969 41.7331 63.5271 40.3769C62.9574 39.0206 62.8034 37.5257 63.0846 36.0818C63.3659 34.6379 64.0697 33.3101 65.1068 32.2668C66.144 31.2235 67.4676 30.5119 68.9099 30.2221C70.3521 29.9323 71.8479 30.0775 73.2075 30.6393C74.5671 31.201 75.7291 32.1539 76.5463 33.3772C77.3634 34.6004 77.7987 36.0388 77.797 37.5099C77.8005 38.4815 77.6125 39.4442 77.2439 40.3431C76.8752 41.2421 76.3332 42.0596 75.6486 42.7491C74.964 43.4385 74.1503 43.9864 73.254 44.3614C72.3577 44.7363 71.3963 44.9311 70.4247 44.9345V44.9258Z" stroke="#010101" stroke-width="2.6174" stroke-linecap="round" stroke-linejoin="round"/>
</svg>
