<svg width="649" height="188" viewBox="0 0 649 188" fill="none" xmlns="http://www.w3.org/2000/svg">
<path d="M88.7077 55.8154C92.2154 49.5385 79.8462 39.9385 75.9692 37.3538C71.1692 33.8461 68.0308 34.7692 64.5231 38.2769C54.3692 49.5385 42.7385 58.4 30.3692 65.9692C30.3692 46.4 30 26.6461 29.8154 7.07692C29.2615 0.98461 16.5231 1.90769 9.69231 2.27691C3.04615 2.83076 2.67692 7.99999 2.67692 7.99999C1.38462 46.5846 0.461539 84.9846 0.461539 123.2C0.461539 127.446 0.461539 130.4 0.646154 131.877C2.12308 142.954 12.8308 142.215 21.5077 141.662C30 140.554 30.5538 132.615 30.5538 132.615C30.5538 120.246 30.5538 107.692 30.5538 95.3231C31.1077 95.1385 31.6615 94.7692 32.4 94.5846C39.2308 105.662 61.2 139.077 69.8769 143.508C74.6769 146.092 81.6923 137.785 87.0462 131.323C92.4 124.492 89.8154 121.908 89.8154 121.908C78.1846 110.831 66.1846 95.8769 56.5846 82.7692C67.8462 74.4615 82.2462 67.4462 88.7077 55.8154ZM155.494 141.292C180.971 141.292 201.832 118.215 201.832 90.3385C201.832 62.4615 180.971 39.5692 155.494 39.5692C130.017 39.5692 109.155 62.4615 109.155 90.3385C109.155 118.215 130.017 141.292 155.494 141.292ZM155.494 66.8923C166.571 66.8923 175.432 77.4154 175.432 90.3385C175.432 103.262 166.571 113.785 155.494 113.785C144.417 113.785 135.74 103.262 135.74 90.3385C135.74 77.4154 144.417 66.8923 155.494 66.8923ZM264.759 47.8769C264.574 34.5846 264.574 21.1077 264.574 7.81538C264.205 1.72307 249.066 2.0923 242.42 2.46152C235.589 2.64615 236.328 8.18461 236.328 8.18461C235.774 14.4615 233.743 125.415 236.143 131.323C237.066 138.338 241.866 140.738 247.405 141.108C271.036 141.846 295.22 135.2 309.066 118.585C318.482 106.769 321.62 91.4462 316.082 77.7846C307.405 58.2154 284.143 47.8769 264.759 47.8769ZM265.128 109.723C265.128 98.0923 264.943 86.2769 264.943 74.6462C298.913 75.0154 295.036 107.692 265.128 109.723ZM369.547 7.99999C369.177 1.72307 356.254 2.83076 349.424 3.01537C342.962 3.19999 343.331 8.92307 343.331 8.92307C343.331 8.92307 339.27 120.431 340.562 131.508C342.039 142.4 352.931 141.662 361.424 140.554C369.916 139.815 370.285 131.877 370.285 131.877L369.547 7.99999ZM423.511 56.7385C423.326 52.8615 410.587 53.2308 403.757 53.2308C397.111 53.0461 397.664 56.7385 397.664 56.7385C397.664 56.7385 395.818 74.6462 394.895 93.4769C393.603 112.123 393.234 131.692 394.157 135.2C395.634 142.031 406.526 141.292 414.834 140.554C423.326 139.262 423.695 134.277 423.695 134.277C422.957 108.615 422.957 82.7692 423.511 56.7385ZM425.357 32.3692C425.357 25.7231 419.264 20.3692 411.88 20.3692C404.495 20.3692 398.403 25.7231 398.403 32.3692C398.403 38.8308 404.495 44 411.88 44C419.264 44 425.357 38.8308 425.357 32.3692ZM475.804 48.4308C475.989 35.1385 476.543 21.6615 477.466 8.18461C477.466 2.46152 464.543 2.27691 457.897 1.90769C450.512 1.72307 449.035 6.8923 448.481 12.2461C445.527 52.4923 445.158 93.1077 447.927 131.877C450.143 142.954 460.666 141.477 469.343 139.815C474.143 139.077 477.65 135.015 477.65 130.4C476.912 118.954 476.358 107.138 475.989 95.5077C474.881 64.3077 509.589 58.2154 506.081 95.6923C505.343 107.323 503.866 118.585 503.866 130.031C504.974 141.662 515.497 141.292 524.358 140.738C533.035 140.554 533.774 132.246 533.774 132.246L535.435 97.5385C540.05 48.6154 505.158 32 475.804 48.4308ZM628.261 37.9077C621.614 38.4615 622.353 46.4 622.353 46.4C622.353 46.4 621.984 56.5538 621.614 71.8769C620.507 97.5385 589.122 113.046 585.43 81.2923C583.584 68.9231 586.353 56 587.276 44.1846C587.461 38.8308 574.353 38.8308 567.707 38.4615C560.876 38.0923 559.214 43.4462 559.214 43.4462C558.476 49.3538 557.738 55.6308 557.184 61.9077C554.968 89.0461 561.614 117.108 590.599 123.385C601.122 125.6 612.199 123.015 620.876 113.415C620.507 122.831 621.799 134.277 620.138 142.585C615.707 163.631 589.861 157.908 578.968 153.846C566.968 151.815 562.168 174.708 571.953 180.246C583.953 187.077 598.538 188 610.538 185.969C629.368 182.462 641.184 169.169 646.168 153.477C648.753 145.354 648.938 137.969 648.384 44.7385C648.014 36.4308 635.091 37.5385 628.261 37.9077Z" fill="#373737"/>
<path d="M162.345 30.001C150.859 29.9328 139.612 33.2763 130.028 39.6077C120.445 45.9392 112.957 54.9735 108.515 65.5654C104.072 76.1573 102.874 87.8298 105.073 99.1033C107.272 110.377 112.768 120.744 120.866 128.89C128.963 137.036 139.297 142.594 150.557 144.86C161.817 147.126 173.497 145.998 184.115 141.618C194.733 137.238 203.812 129.805 210.201 120.259C216.589 110.714 220 99.4868 220 88.0009C220.024 80.4065 218.551 72.8818 215.667 65.8566C212.782 58.8313 208.541 52.4432 203.187 47.0572C197.833 41.6711 191.471 37.3926 184.463 34.4661C177.455 31.5395 169.939 30.0223 162.345 30.001V30.001ZM162.345 105.239C158.925 105.263 155.576 104.271 152.722 102.388C149.867 100.506 147.636 97.8175 146.312 94.665C144.988 91.5126 144.63 88.0378 145.283 84.6815C145.937 81.3252 147.573 78.2388 149.984 75.8139C152.394 73.3889 155.471 71.7347 158.824 71.0612C162.176 70.3876 165.653 70.7251 168.813 72.0308C171.973 73.3365 174.674 75.5515 176.574 78.3948C178.473 81.2381 179.485 84.5816 179.481 88.0009C179.489 90.2593 179.052 92.4971 178.195 94.5866C177.338 96.6761 176.078 98.5764 174.487 100.179C172.896 101.782 171.005 103.055 168.921 103.927C166.838 104.798 164.603 105.251 162.345 105.259V105.239Z" fill="#E3B381"/>
<path d="M162.345 30.001C151.08 30.0757 140.08 33.4258 130.686 39.6429C121.292 45.8601 113.909 54.6758 109.438 65.0155C104.967 75.3552 103.6 86.7723 105.504 97.8753C107.409 108.978 112.502 119.287 120.163 127.546C120.163 127.12 120.163 126.715 120.285 126.289V121.645C120.285 120.58 120.494 119.525 120.902 118.541C121.31 117.556 121.907 116.662 122.661 115.909C123.414 115.156 124.308 114.558 125.292 114.15C126.276 113.743 127.331 113.533 128.396 113.533C129.462 113.533 130.517 113.743 131.501 114.15C132.485 114.558 133.379 115.156 134.132 115.909C134.886 116.662 135.483 117.556 135.891 118.541C136.299 119.525 136.508 120.58 136.508 121.645V126.289C136.508 128.44 137.363 130.504 138.884 132.025C140.406 133.546 142.469 134.401 144.62 134.401C146.772 134.401 148.835 133.546 150.356 132.025C151.877 130.504 152.732 128.44 152.732 126.289V123.977C152.732 121.85 153.567 119.808 155.058 118.291C156.548 116.773 158.575 115.902 160.702 115.865C162.853 115.865 164.917 116.72 166.438 118.241C167.959 119.762 168.814 121.826 168.814 123.977V126.289C168.814 128.44 169.669 130.504 171.19 132.025C172.711 133.546 174.774 134.401 176.926 134.401C179.077 134.401 181.14 133.546 182.662 132.025C184.183 130.504 185.038 128.44 185.038 126.289V121.645C185 119.493 185.819 117.415 187.313 115.867C188.808 114.319 190.856 113.429 193.008 113.391C195.159 113.353 197.237 114.172 198.785 115.667C200.333 117.161 201.224 119.21 201.261 121.361V126.289C201.258 127.457 201.507 128.612 201.991 129.676C210.231 121.675 215.912 111.409 218.314 100.178C220.717 88.9475 219.734 77.2563 215.489 66.5845C211.244 55.9128 203.929 46.7403 194.468 40.228C185.008 33.7158 173.829 30.1566 162.345 30.001V30.001ZM162.345 105.239C158.925 105.263 155.576 104.271 152.722 102.388C149.867 100.506 147.636 97.8175 146.312 94.665C144.988 91.5125 144.63 88.0377 145.283 84.6815C145.937 81.3252 147.573 78.2388 149.984 75.8138C152.395 73.3889 155.471 71.7347 158.824 71.0611C162.176 70.3876 165.653 70.7251 168.813 72.0308C171.973 73.3365 174.674 75.5515 176.574 78.3948C178.473 81.2381 179.485 84.5815 179.481 88.0009C179.489 90.2592 179.052 92.4971 178.195 94.5866C177.338 96.6761 176.078 98.5764 174.487 100.179C172.896 101.782 171.005 103.055 168.921 103.927C166.838 104.798 164.603 105.251 162.345 105.259V105.239Z" fill="#EE66A3"/>
<path d="M147.297 109.031L144.052 115.155" stroke="white" stroke-width="4.05594" stroke-linecap="round" stroke-linejoin="round"/>
<path d="M190.006 69.8303L188.059 76.482" stroke="white" stroke-width="4.05594" stroke-linecap="round" stroke-linejoin="round"/>
<path d="M177.352 110.025L177.271 116.96" stroke="white" stroke-width="4.05594" stroke-linecap="round" stroke-linejoin="round"/>
<path d="M201.748 98.1407L206.007 103.596" stroke="white" stroke-width="4.05594" stroke-linecap="round" stroke-linejoin="round"/>
<path d="M200.754 88.2645L193.88 88.6904" stroke="white" stroke-width="4.05594" stroke-linecap="round" stroke-linejoin="round"/>
<path d="M174.127 56.6688L170.883 62.7729" stroke="white" stroke-width="4.05594" stroke-linecap="round" stroke-linejoin="round"/>
<path d="M209.536 73.1765L206.311 79.3009" stroke="white" stroke-width="4.05594" stroke-linecap="round" stroke-linejoin="round"/>
<path d="M194.285 59.2443L200.349 62.489" stroke="white" stroke-width="4.05594" stroke-linecap="round" stroke-linejoin="round"/>
<path d="M185.038 98.6274L191.101 101.892" stroke="white" stroke-width="4.05594" stroke-linecap="round" stroke-linejoin="round"/>
<path d="M178.285 41.2157L182.32 46.8331" stroke="white" stroke-width="4.05594" stroke-linecap="round" stroke-linejoin="round"/>
<path d="M164.373 43.5276L162.365 50.159" stroke="white" stroke-width="4.05594" stroke-linecap="round" stroke-linejoin="round"/>
<path d="M132.148 81.0652L134.095 87.7169" stroke="white" stroke-width="4.05594" stroke-linecap="round" stroke-linejoin="round"/>
<path d="M137.056 98.6274L132.797 104.083" stroke="white" stroke-width="4.05594" stroke-linecap="round" stroke-linejoin="round"/>
<path d="M139.084 66.2408L139.287 73.1562" stroke="white" stroke-width="4.05594" stroke-linecap="round" stroke-linejoin="round"/>
<path d="M150.927 56.0807L154.152 62.1848" stroke="white" stroke-width="4.05594" stroke-linecap="round" stroke-linejoin="round"/>
<path d="M117.77 71.7974L121.015 77.9016" stroke="white" stroke-width="4.05594" stroke-linecap="round" stroke-linejoin="round"/>
<path d="M134.196 55.0464L128.133 58.2912" stroke="white" stroke-width="4.05594" stroke-linecap="round" stroke-linejoin="round"/>
<path d="M122.434 92.3002L116.35 95.5449" stroke="white" stroke-width="4.05594" stroke-linecap="round" stroke-linejoin="round"/>
<path d="M145.675 41.2157L141.659 46.8331" stroke="white" stroke-width="4.05594" stroke-linecap="round" stroke-linejoin="round"/>
<path opacity="0.3" d="M209.475 54.6205C211.308 60.3713 212.245 66.37 212.253 72.4058C212.335 84.6891 208.488 96.6769 201.273 106.619C194.059 116.56 183.855 123.935 172.151 127.665C160.448 131.396 147.858 131.287 136.221 127.354C124.584 123.422 114.509 115.871 107.468 105.806C110.054 113.689 114.31 120.922 119.945 127.01C125.58 133.099 132.462 137.901 140.121 141.088C147.781 144.276 156.037 145.774 164.328 145.481C172.619 145.187 180.75 143.109 188.165 139.389C195.58 135.668 202.105 130.392 207.296 123.92C212.487 117.448 216.221 109.933 218.243 101.888C220.266 93.8417 220.53 85.4543 219.016 77.2973C217.503 69.1402 214.249 61.4055 209.475 54.6205V54.6205Z" fill="#010101"/>
<path d="M162.345 30.001C151.08 30.0757 140.08 33.4258 130.686 39.6429C121.292 45.8601 113.909 54.6758 109.438 65.0155C104.967 75.3552 103.6 86.7723 105.504 97.8753C107.409 108.978 112.502 119.287 120.163 127.546C120.163 127.12 120.163 126.715 120.285 126.289V121.645C120.285 120.58 120.494 119.525 120.902 118.541C121.31 117.556 121.907 116.662 122.661 115.909C123.414 115.156 124.308 114.558 125.292 114.15C126.276 113.743 127.331 113.533 128.396 113.533C129.462 113.533 130.517 113.743 131.501 114.15C132.485 114.558 133.379 115.156 134.132 115.909C134.886 116.662 135.483 117.556 135.891 118.541C136.299 119.525 136.508 120.58 136.508 121.645V126.289C136.508 128.44 137.363 130.504 138.884 132.025C140.406 133.546 142.469 134.401 144.62 134.401C146.772 134.401 148.835 133.546 150.356 132.025C151.877 130.504 152.732 128.44 152.732 126.289V123.977C152.732 121.85 153.567 119.808 155.058 118.291C156.548 116.773 158.575 115.902 160.702 115.865C162.853 115.865 164.917 116.72 166.438 118.241C167.959 119.762 168.814 121.826 168.814 123.977V126.289C168.814 128.44 169.669 130.504 171.19 132.025C172.711 133.546 174.774 134.401 176.926 134.401C179.077 134.401 181.14 133.546 182.662 132.025C184.183 130.504 185.038 128.44 185.038 126.289V121.645C185 119.493 185.819 117.415 187.313 115.867C188.808 114.319 190.856 113.429 193.008 113.391C195.159 113.353 197.237 114.172 198.785 115.667C200.333 117.161 201.224 119.21 201.261 121.361V126.289C201.258 127.457 201.507 128.612 201.991 129.676C210.231 121.675 215.912 111.409 218.314 100.178C220.717 88.9475 219.734 77.2563 215.489 66.5845C211.244 55.9128 203.929 46.7403 194.468 40.228C185.008 33.7158 173.829 30.1566 162.345 30.001V30.001ZM162.345 105.239C158.925 105.263 155.576 104.271 152.722 102.388C149.867 100.506 147.636 97.8175 146.312 94.665C144.988 91.5125 144.63 88.0377 145.283 84.6815C145.937 81.3252 147.573 78.2388 149.984 75.8138C152.395 73.3889 155.471 71.7347 158.824 71.0611C162.176 70.3876 165.653 70.7251 168.813 72.0308C171.973 73.3365 174.674 75.5515 176.574 78.3948C178.473 81.2381 179.485 84.5815 179.481 88.0009C179.489 90.2592 179.052 92.4971 178.195 94.5866C177.338 96.6761 176.078 98.5764 174.487 100.179C172.896 101.782 171.005 103.055 168.921 103.927C166.838 104.798 164.603 105.251 162.345 105.259V105.239Z" stroke="#010101" stroke-width="6.0839" stroke-linecap="round" stroke-linejoin="round"/>
<path d="M162.345 30.001C150.859 29.9328 139.612 33.2763 130.028 39.6077C120.445 45.9392 112.957 54.9735 108.515 65.5654C104.072 76.1573 102.874 87.8298 105.073 99.1033C107.272 110.377 112.768 120.744 120.866 128.89C128.963 137.036 139.297 142.594 150.557 144.86C161.817 147.126 173.497 145.998 184.115 141.618C194.733 137.238 203.812 129.805 210.201 120.259C216.589 110.714 220 99.4868 220 88.0009C220.024 80.4065 218.551 72.8818 215.667 65.8566C212.782 58.8313 208.541 52.4432 203.187 47.0572C197.833 41.6711 191.471 37.3926 184.463 34.4661C177.455 31.5395 169.939 30.0223 162.345 30.001V30.001ZM162.345 105.239C158.925 105.263 155.576 104.271 152.722 102.388C149.867 100.506 147.636 97.8175 146.312 94.665C144.988 91.5126 144.63 88.0378 145.283 84.6815C145.937 81.3252 147.573 78.2388 149.984 75.8139C152.394 73.3889 155.471 71.7347 158.824 71.0612C162.176 70.3876 165.653 70.7251 168.813 72.0308C171.973 73.3365 174.674 75.5515 176.574 78.3948C178.473 81.2381 179.485 84.5816 179.481 88.0009C179.489 90.2593 179.052 92.4971 178.195 94.5866C177.338 96.6761 176.078 98.5764 174.487 100.179C172.896 101.782 171.005 103.055 168.921 103.927C166.838 104.798 164.603 105.251 162.345 105.259V105.239Z" stroke="#010101" stroke-width="6.0839" stroke-linecap="round" stroke-linejoin="round"/>
</svg>
